<?xml version="1.0" encoding="utf-8"?>
<!-- Generator: Adobe Illustrator 21.0.0, SVG Export Plug-In . SVG Version: 6.00 Build 0)  -->
<svg version="1.1" id="Layer_1" xmlns="http://www.w3.org/2000/svg" xmlns:xlink="http://www.w3.org/1999/xlink" x="0px" y="0px"
	 viewBox="0 0 455 471" style="enable-background:new 0 0 455 471;" xml:space="preserve">
<style type="text/css">
	.st0{opacity:0.15;fill:#D6D8E5;enable-background:new    ;}
	.st1{opacity:0.5;fill:#EDEFF9;enable-background:new    ;}
	.st2{fill:#EDEFF9;}
	.st3{fill:#FFBC00;}
	.st4{fill:#00AEEF;}
	.st5{fill:#424956;}
	.st6{fill:#494949;}
	.st7{fill:#2B303F;}
	.st8{opacity:0.4;fill:#D6D8E5;enable-background:new    ;}
	.st9{fill:#B1B4C4;}
	.st10{fill:#D6D8E5;}
	.st11{fill:#9EA1AF;}
	.st12{fill:#C4C7D6;}
	.st13{fill:#E4E7F2;}
	.st14{fill:#FFFFFF;}
	.st15{fill:#E9EAF2;}
	.st16{fill:#F5F6FF;}
	.st17{fill:none;stroke:#E9EAF2;stroke-width:0.31;stroke-miterlimit:10;}
	.st18{fill:none;stroke:#E9EAF2;stroke-width:1.53;stroke-miterlimit:10;}
	.st19{fill:#EDF0F9;}
	.st20{fill:#E2E5F2;}
	.st21{fill:#439BDD;}
	.st22{fill:#FFCEA9;}
	.st23{fill:#EDEDED;}
	.st24{fill:#38226D;}
	.st25{fill:#F4F4F4;}
	.st26{fill:#3A2C6D;}
</style>
<title>Startup_SVG</title>
<g id="Слой_2">
	<g id="Слой_1-2">
		<ellipse class="st0" cx="65.7" cy="294.2" rx="65.7" ry="37.9"/>
		<ellipse class="st1" cx="64.9" cy="290.1" rx="36.6" ry="21.2"/>
		<ellipse class="st2" cx="64.6" cy="282.6" rx="10.5" ry="6"/>
		<rect x="54.9" y="202.5" class="st2" width="20.1" height="79"/>
		<path class="st3" d="M53.9,201.7c0,0,0.5,16.2,12.1,45.4c0,0,10.8-23.5,11.9-45.9S53.9,201.7,53.9,201.7z"/>
		<polygon class="st4" points="39.8,140.5 13.1,166.5 9.9,200.5 42.2,184.3 48.1,142.8 		"/>
		<polygon class="st4" points="92.3,140.5 119,166.5 122.2,200.5 89.7,183.2 84,142.8 		"/>
		<ellipse class="st5" cx="65.7" cy="198.1" rx="13.3" ry="7.7"/>
		<polygon class="st6" points="45.6,190.4 45.6,183.5 85.8,183.5 85.8,190.7 		"/>
		<ellipse class="st7" cx="65.7" cy="190.4" rx="20.2" ry="11.6"/>
		<ellipse class="st2" cx="65.6" cy="179.9" rx="24.6" ry="14.2"/>
		<path class="st2" d="M92.2,154.6L92.2,154.6c0,1.1,0,2.3,0,3.4c0,0.9,0,1.8,0,2.7c0,1.2-0.1,2.4-0.1,3.6c0,1.4-0.1,2.8-0.2,4.1
			c-0.1,1.3-0.1,2.6-0.2,3.8c-0.4,5.2-0.4,9-1,10.5c-3.5,8.1-15.3,3.7-21.1,0.7c-2.1-1.1-3.6-2-3.6-2h-0.5c0,0-1.7,0.9-4.2,1.9
			c-6.1,2.5-17,6.8-20-0.7c-0.5-1.4-1.1-5.8-1.4-10.5c-0.1-1.2-0.2-2.4-0.2-3.8c-0.1-1.3-0.1-2.7-0.2-4.1c0-1.1-0.1-2.3-0.1-3.5
			c0-0.9,0-1.8,0-2.7l0,0v-3.4l0,0C39.3,122.7,42.7,71.8,53.9,50c3.2-6.3,7.1-10.1,11.7-10.4l0,0h0.5l0,0c4.6,0.2,8.5,4.1,11.7,10.3
			C88.9,71.6,92.4,122.4,92.2,154.6z"/>
		<circle class="st7" cx="65.8" cy="115.3" r="9.3"/>
		<path class="st5" d="M65.8,125.9c-5.9,0-10.7-4.8-10.7-10.7c0-5.9,4.8-10.7,10.7-10.7s10.7,4.8,10.7,10.7
			C76.4,121.2,71.7,125.9,65.8,125.9z M65.8,107.4c-4.4,0-7.9,3.5-7.9,7.9c0,4.4,3.5,7.9,7.9,7.9c4.4,0,7.9-3.5,7.9-7.9c0,0,0,0,0,0
			C73.7,110.9,70.1,107.4,65.8,107.4z"/>
		<circle class="st7" cx="65.8" cy="88" r="9.3"/>
		<path class="st5" d="M65.8,98.7c-5.9,0-10.7-4.8-10.7-10.7c0-5.9,4.8-10.7,10.7-10.7c5.9,0,10.7,4.8,10.7,10.6
			C76.4,93.9,71.7,98.6,65.8,98.7z M65.8,80.1c-4.4,0-7.9,3.5-7.9,7.9c0,4.4,3.5,7.9,7.9,7.9c4.4,0,7.9-3.5,7.9-7.9c0,0,0,0,0,0
			C73.7,83.6,70.2,80.1,65.8,80.1L65.8,80.1L65.8,80.1z"/>
		<path class="st4" d="M92.2,173c0,1.1,0,2.3,0,3.4c-0.9,3-3.4,5.9-7.4,8.2c-10.5,6-27.4,6-37.9,0c-4-2.3-6.5-5.2-7.4-8.2l0,0V173
			c0.9,3.1,3.4,6,7.5,8.4c10.5,6,27.5,6,37.9,0C88.8,179,91.3,176.1,92.2,173z"/>
		<path class="st4" d="M92.1,178.3c0,1.2-0.1,2.4-0.1,3.6c-1,2.9-3.5,5.6-7.3,7.8c-10.5,6-27.4,6-37.9,0c-3.8-2.2-6.3-5-7.3-7.8
			c0-1.1-0.1-2.3-0.1-3.5c0.9,3,3.4,5.8,7.4,8.1c10.5,6,27.5,6,37.9,0C88.7,184.1,91.2,181.3,92.1,178.3z"/>
		<path class="st4" d="M91.8,168.9c-1.1,2.7-3.5,5.2-7.1,7.3c-10.5,6-27.4,6-37.9,0c-3.7-2.1-6-4.7-7.1-7.4c0.1,1.3,0.1,2.6,0.2,3.8
			c1.2,2.5,3.5,4.9,6.9,6.9c4.5,2.4,9.4,3.9,14.5,4.3c2.7,0.3,5.5,0.3,8.2,0.1c5.3-0.3,10.5-1.8,15.2-4.4c3.4-2,5.7-4.3,6.9-6.8
			L91.8,168.9z"/>
		<path class="st4" d="M77.7,50c-7.8,2.4-16.2,2.4-24,0c3.2-6.3,7.1-10.1,11.7-10.4l0,0H66l0,0C70.6,39.9,74.5,43.7,77.7,50z"/>
		<rect x="63.8" y="140.6" class="st4" width="4.6" height="59.8"/>
		<g id="monitor">
			<path class="st8" d="M284.5,349.1l-53-30.6c-3.8-2.2-3.3-6.1,1.1-8.6l34.3-19.8l66.8,38.6l-34.3,19.8
				C294.9,351,288.3,351.3,284.5,349.1z"/>
			<path class="st9" d="M288.3,346.8l-53-30.6c-3.8-2.2-3.3-6.1,1.1-8.6l34.3-19.8l66.8,38.6l-34.3,19.8
				C298.8,348.8,292.1,349,288.3,346.8z"/>
			<polygon class="st9" points="337.6,326.4 337.6,324.4 334.5,326.2 			"/>
			<polygon class="st9" points="232.8,312.6 232.8,310.5 235.9,311.9 			"/>
			<path class="st10" d="M288.3,344.8l-53-30.6c-3.8-2.2-3.3-6.1,1.1-8.6l34.3-19.8l66.8,38.6l-34.3,19.8
				C298.8,346.7,292.1,347,288.3,344.8z"/>
			<polygon class="st11" points="270.9,285.9 262.6,258.4 330.2,297.2 337.6,324.4 			"/>
			<path class="st11" d="M335.6,325.5l2-1.1l-2.9-2.3L335.6,325.5z"/>
			<polygon class="st9" points="268.8,286.9 260.5,259.5 328.1,298.2 335.6,325.5 			"/>
			<path class="st12" d="M440.3,371.8l-261.5-151c-3.7-2.1-6.6-7.8-6.6-12.7V5.8c0-4.9,3-7.1,6.6-5l261.5,151
				c3.7,2.1,6.6,7.8,6.6,12.7v202.3C446.9,371.6,444,373.9,440.3,371.8z"/>
			<polygon class="st12" points="441.6,373.8 444.5,372.2 443.3,363.6 			"/>
			<path class="st9" d="M171.7,2l2.9-1.7l4.1,2.3c0,0-4.4,0.7-4.5,0.6S171.7,2,171.7,2z"/>
			<path class="st13" d="M437.9,373.1l-261.5-151c-3.7-2.1-6.6-7.8-6.6-12.7V7.2c0-4.9,3-7.1,6.6-5l261.5,151
				c3.7,2.1,6.6,7.8,6.6,12.7v202.3C444.5,373,441.5,375.3,437.9,373.1z"/>
			<path class="st10" d="M437.4,373.4l-261.5-151c-3.7-2.1-6.6-7.8-6.6-12.7V7.5c0-4.9,3-7.1,6.6-5l261.5,151
				c3.7,2.1,6.6,7.8,6.6,12.7v202.2C444.1,373.3,441.1,375.5,437.4,373.4z"/>
			<path class="st14" d="M440.5,361.1L172.7,206.4l0.1-198.2c0-2,1.4-2.9,3.2-1.8l261.5,151c1.9,1.2,3,3.3,3.2,5.5L440.5,361.1z"/>
			<path class="st15" d="M278.4,93.2l-85.8-49.5c-0.8-0.6-1.3-1.5-1.3-2.5v-6c0-0.9,0.6-1.4,1.3-1l85.8,49.5
				c0.8,0.6,1.3,1.5,1.3,2.5v6C279.7,93.2,279.1,93.7,278.4,93.2z"/>
			<path class="st15" d="M256.3,94.7L193,58.1c-0.8-0.6-1.3-1.5-1.3-2.5v-3c0-0.9,0.6-1.4,1.3-1l63.4,36.6c0.8,0.6,1.3,1.5,1.3,2.5
				v3C257.6,94.7,257,95.1,256.3,94.7z"/>
			<path class="st15" d="M256.3,106L193,69.4c-0.8-0.6-1.3-1.5-1.3-2.5v-3c0-0.9,0.6-1.4,1.3-1l63.4,36.6c0.8,0.6,1.3,1.5,1.3,2.5v3
				C257.6,106,257,106.4,256.3,106z"/>
			<path class="st4" d="M244.4,110.4L193,80.7c-0.8-0.6-1.3-1.5-1.3-2.5v-3c0-0.9,0.6-1.4,1.3-1l51.4,29.7c0.8,0.6,1.3,1.5,1.3,2.5
				v3C245.7,110.3,245.1,110.8,244.4,110.4z"/>
			<path class="st15" d="M278.4,211.8l-85.8-49.5c-0.8-0.6-1.3-1.5-1.3-2.5v-6c0-1,0.6-1.4,1.3-1l85.8,49.5c0.8,0.6,1.3,1.5,1.3,2.5
				v6C279.7,211.8,279.1,212.2,278.4,211.8z"/>
			<path class="st15" d="M256.3,213.2L193,176.7c-0.8-0.6-1.3-1.5-1.3-2.5v-3c0-1,0.6-1.4,1.3-1l63.4,36.5c0.8,0.6,1.3,1.5,1.3,2.5
				v3C257.6,213.2,257,213.6,256.3,213.2z"/>
			<path class="st15" d="M256.3,224.5L193,187.9c-0.8-0.6-1.3-1.5-1.3-2.5v-3c0-0.9,0.6-1.4,1.3-1l63.4,36.5
				c0.8,0.6,1.3,1.5,1.3,2.5v3C257.6,224.5,257,224.9,256.3,224.5z"/>
			<path class="st4" d="M244.4,228.9L193,199.2c-0.8-0.6-1.3-1.5-1.3-2.5v-3c0-1,0.6-1.4,1.3-1l51.4,29.7c0.8,0.6,1.3,1.5,1.3,2.5v3
				C245.7,228.9,245.1,229.3,244.4,228.9z"/>
			<path class="st16" d="M301.3,226.5c0,0,9.5,7.9,23.1-2.9c9.8-8,18.5-3.4,23.3-0.7c4.9,2.7,11.9,4.4,25.2,28.6
				c0,0,4.3,7.6,11.5,11.7c7.2,4.1,10.6,2.1,16.3-6.4s9.3-17.9,19.7-11.8v85.6l-120.2-69.3v-35.3L301.3,226.5z"/>
			<path class="st15" d="M275.2,190.2L193,142.7c-0.8-0.6-1.3-1.5-1.3-2.5V92.8c0-0.9,0.6-1.4,1.3-1l82.2,47.5
				c0.8,0.6,1.3,1.5,1.3,2.5v47.5C276.5,190.2,275.9,190.6,275.2,190.2z"/>
			<polyline class="st17" points="300.4,224.5 300.4,261.2 420.6,330.6 420.6,245 			"/>
			<line class="st17" x1="347.6" y1="223.3" x2="347.6" y2="288.4"/>
			<line class="st17" x1="384.4" y1="264.5" x2="384.4" y2="309.6"/>
			<path class="st18" d="M300.4,225.9c21.3,13.2,24.3-16.7,47.6-3.3s20,30.9,37.2,40.8c17.1,9.9,17.5-28.8,35.4-18.4"/>
			<ellipse transform="matrix(0.866 -0.5 0.5 0.866 -65.096 203.7239)" class="st4" cx="347.6" cy="223.3" rx="2.3" ry="4"/>
			<ellipse transform="matrix(0.867 -0.4983 0.4983 0.867 -66.4334 243.1072)" class="st4" cx="422.2" cy="246" rx="2.3" ry="4"/>
			<ellipse transform="matrix(0.867 -0.4983 0.4983 0.867 -80.6019 227.4982)" class="st4" cx="385.9" cy="264.8" rx="2.3" ry="4"/>
			<ellipse transform="matrix(0.866 -0.5 0.5 0.866 -72.7273 180.4626)" class="st4" cx="300.4" cy="225.9" rx="2.3" ry="4"/>
			<path class="st15" d="M303.8,162.8l-4.9-2.8c-0.8-0.6-1.3-1.5-1.3-2.5v-23.8c0-1,0.6-1.4,1.3-1l4.9,2.9c0.8,0.6,1.3,1.5,1.3,2.4
				v23.8C305.1,162.8,304.5,163.2,303.8,162.8z"/>
			<path class="st4" d="M315.2,169.4l-4.9-2.9c-0.8-0.6-1.3-1.5-1.3-2.5v-48.4c0-0.9,0.6-1.4,1.3-1l4.9,2.9c0.8,0.6,1.3,1.5,1.3,2.5
				v48.4C316.4,169.3,315.8,169.8,315.2,169.4z"/>
			<path class="st15" d="M337.8,182.5l-4.9-2.8c-0.8-0.6-1.3-1.5-1.3-2.5v-43.7c0-1,0.6-1.4,1.3-1l4.9,2.8c0.8,0.6,1.3,1.5,1.3,2.5
				v43.7C339.1,182.4,338.5,182.9,337.8,182.5z"/>
			<path class="st4" d="M349.1,189l-4.9-2.8c-0.8-0.6-1.3-1.5-1.3-2.5v-36.2c0-0.9,0.6-1.4,1.3-1l4.9,2.9c0.8,0.6,1.3,1.5,1.3,2.5
				V188C350.5,189,349.9,189.4,349.1,189z"/>
			<path class="st15" d="M371.7,202l-4.9-2.8c-0.8-0.6-1.3-1.5-1.3-2.5v-17.9c0-1,0.6-1.4,1.3-1l4.9,2.8c0.8,0.6,1.3,1.5,1.3,2.5
				v17.9C373,202,372.4,202.5,371.7,202z"/>
			<path class="st4" d="M383.1,208.6l-4.9-2.9c-0.8-0.6-1.3-1.5-1.3-2.5v-60.9c0-1,0.6-1.4,1.3-1l4.9,2.8c0.8,0.6,1.3,1.5,1.3,2.5
				v60.9C384.4,208.6,383.8,209,383.1,208.6z"/>
			<path class="st15" d="M410.7,224.6l-4.9-2.9c-0.8-0.6-1.3-1.5-1.3-2.5v-17.9c0-1,0.6-1.4,1.3-1l4.9,2.9c0.8,0.6,1.3,1.5,1.3,2.5
				v17.9C412,224.5,411.5,225,410.7,224.6z"/>
			<path class="st4" d="M422.1,231.1l-4.9-2.9c-0.8-0.6-1.3-1.5-1.3-2.5V202c0-1,0.6-1.4,1.3-1l4.9,2.8c0.8,0.6,1.3,1.5,1.3,2.5
				v23.8C423.4,231.1,422.8,231.5,422.1,231.1z"/>
		</g>
		<path class="st8" d="M95.8,454.9l-40.8-23.5c-4.6-2.7-4-7.3,1.3-10.4l20.7-12c5.3-3.1,13.4-3.4,18-0.7l40.8,23.5
			c4.6,2.7,4,7.3-1.3,10.4l-20.7,12C108.5,457.3,100.5,457.7,95.8,454.9z"/>
		<path class="st10" d="M157.1,425.6v-56.9L70,358.8v57.3l0,0c-0.1,1.8,0.9,3.4,3.1,4.7l40.8,23.5c4.6,2.7,12.7,2.3,18-0.7l20.7-12
			C155.7,429.9,157.2,427.7,157.1,425.6L157.1,425.6z"/>
		<path class="st19" d="M157.1,374.9v-6.2h-6.7l-37.2-21.5c-4.6-2.7-12.7-2.3-18,0.7l-20.7,12c-0.4,0.2-0.7,0.4-1.1,0.7l-3.3-1.7
			c0,0,0,6.6,0,6.8l0,0c-0.1,1.7,0.9,3.4,3.1,4.6l40.8,23.5c4.6,2.7,12.7,2.3,18-0.7l20.7-11.9C155.8,379.3,157.2,377.1,157.1,374.9
			L157.1,374.9z"/>
		<path class="st20" d="M113.9,387.1l-40.8-23.5c-4.6-2.7-4-7.3,1.3-10.4l20.7-11.9c5.3-3.1,13.4-3.4,18-0.7l40.8,23.5
			c4.6,2.7,4,7.3-1.3,10.4L132,386.3C126.6,389.4,118.6,389.7,113.9,387.1z"/>
		<path class="st21" d="M104.7,354.9v-2.3h-1.4l-0.4-0.3c-2.8-1.4-6-1.4-8.8,0c-0.3,0.2-0.5,0.3-0.7,0.5l-1.1-0.2v2.3
			c0.1,1.1,0.8,2.1,1.8,2.5c2.8,1.4,6,1.4,8.8,0C103.9,357,104.6,356,104.7,354.9z"/>
		<ellipse class="st4" cx="98.5" cy="352.7" rx="6.2" ry="3.6"/>
		<path class="st21" d="M120.2,364.5c-0.3,0.8-0.9,1.4-1.7,1.8c-2.8,1.4-6,1.4-8.8,0c-0.7-0.4-1.3-1-1.7-1.8
			c-0.5-1.2,0.1-2.4,1.7-3.3c2.8-1.4,6-1.4,8.8,0C120.1,362,120.7,363.3,120.2,364.5z"/>
		<path class="st4" d="M120.2,364.5c-0.3,0.8-0.9,1.4-1.7,1.8c-2.8,1.4-6,1.4-8.8,0c-1-0.1-1.7-0.9-1.6-1.9c0.1-0.9,0.8-1.6,1.6-1.6
			c2.8-1.4,6-1.4,8.8,0C119.3,363.1,119.9,363.7,120.2,364.5z"/>
		<path class="st21" d="M134.8,372.6v-2.3h-1.4L133,370c-2.8-1.4-6-1.4-8.8,0c-0.3,0.2-0.5,0.3-0.7,0.5l-1.1-0.2v2.3
			c0.1,1.1,0.8,2.1,1.8,2.5c2.8,1.4,6,1.4,8.8,0C134,374.7,134.7,373.7,134.8,372.6z"/>
		<ellipse class="st4" cx="128.6" cy="370.3" rx="6.2" ry="3.6"/>
		<g id="Men_2">
			<path id="_Контур_" class="st22" d="M59.7,345.8c-0.2,2.1-2.7,11.3-2.2,14.5c0.5,3.2,9.2,8.4,9.2,8.4l1.2-5.4l-4.8-4.7
				l1.3-8.9L59.7,345.8z"/>
			<path id="_Контур_2" class="st23" d="M66.4,336.7c-1.7-0.8-3.8-0.2-4.8,1.5c-1.3,2.1-2.6,9.4-2.7,10.6c0,0,1.8,2.5,4.5,2.1
				L66.4,336.7z"/>
			<path class="st24" d="M76.3,439.2c1.9,0.5,3.9,0.3,5.6-0.7c1.4,0,8.7-3.1,9.7-0.5c0.9,2.3-2.3,4.5-4,4.9
				c-3.7,0.9-6.4,2.7-7.9,3.1c-1.1,0.2-2.5,0.4-3.4-0.5C75.1,444.4,75.2,440.6,76.3,439.2z"/>
			<path class="st4" d="M79.6,445.3c1.5-0.3,4.2-2.2,7.9-3.1c1.4-0.3,3.9-1.9,4.1-3.8c0.3,2.1-2.5,4-4.1,4.4
				c-3.7,0.9-6.4,2.7-7.9,3.1c-1.1,0.2-2.5,0.4-3.4-0.5c-0.2-0.3-0.4-0.6-0.5-0.9C76.8,445.4,78.3,445.7,79.6,445.3z"/>
			<path class="st24" d="M64.4,433.8c1.9,0.5,3.9,0.3,5.6-0.7c1.4,0,8.7-3.1,9.7-0.5c0.9,2.3-2.3,4.4-4,4.9
				c-3.7,0.9-6.5,2.7-7.9,3.1c-1.1,0.2-2.5,0.4-3.4-0.5C63.2,439.1,63.3,435.2,64.4,433.8z"/>
			<path class="st4" d="M67.7,440c1.5-0.3,4.2-2.2,7.9-3.1c1.4-0.3,3.9-1.9,4.1-3.8c0.3,2.1-2.5,4-4.1,4.4c-3.7,0.9-6.5,2.7-7.9,3.1
				c-1.1,0.2-2.5,0.4-3.4-0.5c-0.2-0.3-0.4-0.6-0.5-0.9C64.9,440.1,66.4,440.3,67.7,440z"/>
			<path id="_Контур_3" class="st4" d="M64.2,413.9c0.3-2.7,0.9-5.4,1.7-8c0,0-0.5-6.9-0.8-13.5c-0.3-7.5-2.9-14-0.8-20
				l23,5.1c0,0-1.4,29.8-1.7,33.4c-0.2,2.8-0.5,5.6-1,8.4c-1.1,5.8-2.7,19.5-2.7,19.5c-2.4,1.4-5.6,0.6-5.6,0.6s0.2-17.4,0.3-21.6
				c0.2-5.1,0.3-4.7,0.3-4.7l-0.8-12.7l-0.5-6.3c0,0-0.6,4.6-1.1,8.8c-0.4,3.6-1.2,6.9-2.2,13.6c-0.8,5.8-2.2,17.5-2.2,17.5
				c-2.4,1.4-5.7,0.2-5.7,0.2S63.6,418.9,64.2,413.9z"/>
			<path id="_Контур_4" class="st22" d="M67.6,336.8c1.8,0.1,3.1,0.5,3.3,0c0.2-0.9,0.3-1.8,0.4-2.7c-0.2-0.5-0.4-1.1-0.4-1.1
				c-2.2-1.4-2.9-3.7-3.2-6.5c-0.5-4.7,2.1-8.9,6.8-9.4c4.5-0.5,7.7,2.7,8.6,7c0.5,2.1,1.4,6.1,0.1,9.6c-0.7,2-1.6,3.5-2.5,3.8
				c-0.9,0-1.8-0.1-2.6-0.2l0,0c0,0-0.2,1.3-0.4,2.2s-0.1,1.3,1.6,2.3c1.7,1-2.5,3.2-5.3,3s-5.9-1.9-6.7-3.7
				C66.3,339.1,66.4,336.8,67.6,336.8z"/>
			<path id="_Контур_5" class="st25" d="M70.1,337.1c-0.5,1.2,0.7,2.7,4,3.7s3.6-0.3,3.6-0.3c2.2,1,4.3,2.1,6.4,3.3
				c2,1.4,2.9,5.4,3.1,12.1c0.3,7.8,0.3,19.4,0.1,21.4c0,0-3.7,3.7-8.4,3.3c-4.8-0.4-12.7-4.6-14.6-7.8c0.1-6.9,0.9-8-0.3-11.9
				c-2.5-9-3.9-12.8-2.6-18.8c1-5,2.4-5.6,4.4-5.5C67.3,336.7,68.7,336.9,70.1,337.1z"/>
			<path id="_Контур_6" class="st22" d="M94.7,362.4c-3.9,1-4.8-1.5-5.3-3.5c-1.2-4.9-1.9-9.3-2.8-12.1
				c-1.1-3.3-2.2-3.8-3.8-4.4c-1.8-0.8-3.5,0.8-2.9,5c0.8,4.9,2,9.6,3.6,14.3c0.5,1.5,1.6,4.2,3.2,5.6c2,1.6,5,1.6,9.6,0.4
				c1.9-0.5,4.1-1.7,7.8-3.4c1-0.5,1.8-0.8,3.7-1.7c1.9-0.9,3.6-2.2,4.9-3.8c1-1.4,1.1-2.1,0.9-2.4c-0.2-0.3-0.7-0.3-1.2,0.3
				c-0.8,1-1.7,1.9-2.8,2.6c0,0,1.2-1.3,1.9-2.1c0.6-0.7,1.1-1.5,1.5-2.4c0.3-0.8-0.4-2-0.9-1.4c-0.5,0.6-0.8,1.2-1.8,2.4
				c-0.5,0.6-1.2,1.2-1.8,1.7c0.6-0.8,1.2-1.7,1.7-2.7c0.4-0.7,0.6-1.6,0.6-2.4c0-0.4-0.6-1-1.2-0.1c-0.6,1.1-1.3,2.2-2.1,3.2
				c-0.9,0.9-1.6,1.4-1.7,1.2s0.5-0.8,0.8-1.8c0.3-1.1,0-2.2-0.6-2.3c-0.6-0.1-0.5-0.1-0.9,0.9c-0.7,1-1.2,2.1-1.8,3.2
				c-0.3,1-0.9,2-1.6,2.7C100.5,360.4,98.4,361.5,94.7,362.4z"/>
			<path id="_Контур_7" class="st23" d="M81.3,341.7c2.6-0.4,4.4,0.8,5.6,4.7c1.1,3.9,1.9,7.1,1.9,7.1c-1,1.5-2.6,2.5-4.3,2.9
				c-3.1,0.8-4.2-0.7-4.2-0.7s-0.9-4.1-1.4-6.9C78.4,346,78.1,342.2,81.3,341.7z"/>
			<path class="st26" d="M83,323.5c0,0,4.1-6.2-4.8-7.5c-6.4-0.9-10.5,3.2-11,7.7c-0.5,4.3,2.2,8.7,4.1,10.5
				c1.9,0.5,3.8,0.2,5.5-0.7c0.1-1.2,0.2-2.3,0.1-3.5C77,330,73.8,323.4,83,323.5z"/>
		</g>
		<ellipse class="st8" cx="349.5" cy="429.9" rx="22.5" ry="13"/>
		<g id="Girl_14">
			<path id="_Контур_8" class="st26" d="M349.3,304.5c0.9-1.5,8-2.5,10.4,3.5c0.9,2.3,0.7,8.1,1.5,11.8s2.5,5.7,3.1,8.7
				c0.6,3-0.4,8-7.6,8.8c-7.2,0.9-12.7-1.6-14.4-3.9c-1.7-2.3-1.7-7.1,0-9.8c1.7-2.6,3.1-4.7,3.1-8.1L349.3,304.5z"/>
			<path id="_Контур_9" class="st26" d="M354,303.5c0,0-5.4-1.5-8.6,1.3c-2.2,2-3.1,5.1-2.3,7.9c0.4,1.7,1.3,4,2.6,4.1
				C347.1,317,354,303.5,354,303.5z"/>
			<path id="_Контур_10" class="st22" d="M356,318.1c0,0-0.4,6-0.2,6.4s2.3,0.9,3,1.4s-3.2,6.6-5.2,7.5
				c-2,0.9-8.1-1.4-8.5-4.4c-0.4-2.8,1.7-5,2.6-5.7c0.6-0.1,1.1-0.1,1.7,0l0.2-2.9C352.2,319.4,356,318.1,356,318.1z"/>
			<path class="st22" d="M341.6,329.4c0-0.2-0.9,0.3-0.9,0.3c0,0-0.4,15.3-1.2,16.7l0,0c-1.9,3.2-7,8.7-7.1,9.4
				c-0.4,1.8,0.7,0.2,2.4,0c1-0.1,6.7-5.9,8-7.3l0.1,0v-0.1l0.2-0.2c0-0.4,0-0.8,0-1.2C345.6,330.3,342.6,329.2,341.6,329.4z"/>
			<path id="_Контур_11" class="st25" d="M356.8,325.1c1.7,0.3,3.6,1.2,3.9,2.1c0.7,3.3,0.5,6.7-0.5,10
				c-1.5,3.8-2.4,6.3-3.3,7.9c0,0-7.2,3.1-13.1-0.5c0,0-0.4-4.1-0.4-6.3c-5.4-4.7-0.8-10.5,3.8-15c0.5-0.1,1.1-0.1,1.6,0
				c0,0-4.1,4.8-1.2,7.6C353.7,328.9,354.9,326.1,356.8,325.1z"/>
			<path id="_Контур_12" class="st22" d="M344.9,310.7L344.9,310.7c0.6-3.8,3.4-6.7,7.3-6.5c4.2,0.2,7.4,3.8,7.2,8
				c-0.1,2.4-1.4,4.6-3.4,5.9c-0.1,0.6-0.3,1.1-0.6,1.7c-1.4,1.6-5.1,2.7-6.3,2.7c-1.1,0-2-1-3-2.6
				C344,316.4,344.6,312.6,344.9,310.7z"/>
			<path class="st26" d="M353.4,304.3c2.7,0.5,5,1.3,5.8,4c0.5,1.9,1.2,5.5,0.5,7l-0.4,1.1l-3.4,1.7c0,0-1.6-1.3-1.1-5.1
				c0-0.5-0.2-1-0.5-1.4c-0.2-0.4-0.4-0.8-0.5-1.2c-0.4-1-1.2-1.9-2.2-2.4c-2.5-1.4-6.1-0.2-6.7,0.3
				C346.6,305.2,350.1,303.5,353.4,304.3z"/>
			<path class="st24" d="M358.5,425.4c-1.4,1.1-3.6,0.4-3.7,0.5c-1.6,1.4-3.4,2.7-5.1,3.9c-0.9,0.7-2.2,1.6-2,2.9
				c0.4,2.4,4.2,1.6,5.6,0.9s2.6-1.9,3.9-2.7c1-0.6,1.9-0.9,2.1-2.1C359.4,428,358.7,425.4,358.5,425.4z"/>
			<path class="st4" d="M359.3,428.3c-0.2,1.2-1.1,1.5-2.1,2.1c-1.4,0.8-2.6,2.1-4,2.8c-1.4,0.7-4.6,1.3-5.5-0.4
				c0.5,2.3,4.2,1.6,5.6,0.8c1.4-0.7,2.6-1.9,3.9-2.7c1-0.6,1.9-0.9,2.1-2.1C359.3,428.6,359.3,428.4,359.3,428.3z"/>
			<path class="st24" d="M348.6,423.4c-1.3,1.1-3.2,0.5-3.3,0.6c-1.5,1.3-3.1,2.5-4.7,3.6c-0.8,0.6-2.1,1.5-1.8,2.7
				c0.4,2.2,3.9,1.5,5.2,0.8c1.3-0.7,2.4-1.8,3.6-2.5c0.9-0.5,1.7-0.8,1.9-1.9C349.6,425.9,348.9,423.4,348.6,423.4z"/>
			<path class="st4" d="M349.5,426.2c-0.2,1.1-1,1.4-1.9,1.9c-1.3,0.8-2.4,1.9-3.7,2.6c-1.3,0.7-4.2,1.2-5.1-0.3
				c0.5,2.1,3.9,1.4,5.2,0.8s2.4-1.8,3.6-2.5c0.9-0.5,1.7-0.8,1.9-1.9C349.5,426.5,349.5,426.3,349.5,426.2z"/>
			<path class="st22" d="M341.1,358.2c0.6-4.8,2.4-11.9,2.4-11.9c1.7,0.8,3.5,1.2,5.4,1.3c2.7,0,5.4-0.3,8.1-0.8
				c0.9,1.5,1.8,3,2.9,4.4c1.4,1.9,4.1,6.2,3.5,13.6c-0.4,4.8-3.1,25.4-3.1,25.4c1.1,3.5,1.6,7,1.7,10.7c-0.3,4.3-0.8,8.6-1.7,12.8
				l-1.6,11.7c0,0-2.2,1.6-3.7,0.5l0.2-11.4c-0.2-2.8-0.5-6.9-0.6-9.5c-0.3-4.3-1.1-11.1-1.3-12.8c-0.2-1.7-0.8-4.7-1-8
				s-1.5-20.3-1.5-20.3l-0.2,3.2c0,0-0.2,5.1-0.9,11.5s-1,9.1-1,9.1c0.7,1.3,1.2,2.7,1.5,4.1c0.1,1.4,1.7,12.2,0.8,17.7l-1.9,14
				c-1,0.7-2.2,0.8-3.3,0.4l-1.1-14.1c-0.8-5.4-2.4-16.8-2.6-18.3c-0.5-3-0.9-6-1-9.1C340.3,376.4,340.5,363,341.1,358.2z"/>
			<path class="st4" d="M357,345l4.2,8.4c0,0,6.4,9.3-0.2,33.2l1.2,7.4c0,0-12.5,8-20.8,0c0,0-2.9-22.1-1.4-32.3
				c0.9-5.9,2.2-11.6,3.9-17.3c0,0,2,2.3,12.6,0.8"/>
			<path class="st23" d="M347.2,323.2c0,0-3.3-1-6.8,6.3l1.3,0.8C341.7,330.3,345.2,325.1,347.2,323.2z"/>
			<g>
				<polygon class="st25" points="321.4,362.9 335.6,354.7 345.8,360.5 331.6,368.8 				"/>
			</g>
			<path class="st22" d="M333.8,355.3c-0.9,0.1-1.8,0.4-2.5,0.8c-0.3,0.2-0.6,0.5-0.9,0.7c-0.1,0.1-0.3,0.2-0.4,0.2
				c-0.2,0.1-0.4,0.2-0.6,0.4c-0.2,0.2-0.2,0.5-0.2,0.8c-0.1,0.3-0.1,0.7-0.1,1c0.1,0.5,0.7,0.5,0.9,0.1c0.1-0.2,0.2-0.4,0.2-0.6
				c0-0.4,0.2-0.8,0.6-1.1l3.4-2.1C334.1,355.3,334,355.2,333.8,355.3z"/>
			<path class="st22" d="M360.9,329.8c-0.5-1.9-2-1.3-3.3-2.4c-3,4.3-1,15.9-0.6,17.1l-11.6,7.4l0,0l-0.8,0.5
				c-1.3,0.9-2.8,1.5-4.3,1.9c-1.2,0.1-1.8,1.8-3,1.9c-0.3,0-0.5,0.2-0.5,0.5c0,0.1,0.1,0.2,0.1,0.3c0.5,0.5,1.8,0.1,2.7-1
				c0,0,0,0,0,0.1c0,0.3,0.2,0.7,0.5,0.8c0.1,0,0.1,0.1,0.2,0.1c0,0.1,0,0.2,0.1,0.2c0.1,0.3,0.4,0.5,0.7,0.5l0,0
				c0.1,0.4,0.5,0.6,0.9,0.6c0.3,0,0.5-0.1,0.7-0.3c1-0.4,1.9-1,2.5-1.8c0.6-0.6,1.2-1.2,1.9-1.8c3.2-1.4,12.6-5.4,13-6
				C360.9,347.5,361.6,332.5,360.9,329.8z"/>
			<path class="st23" d="M361.9,335c0,0-3.7,1.7-6.8,0.1l0.4-5.8c0,0,0-3.1,2.8-3.4C361.2,325.5,362.7,329.1,361.9,335z"/>
		</g>
	</g>
</g>
</svg>
