<?xml version="1.0" encoding="utf-8"?>
<!-- Generator: Adobe Illustrator 21.0.0, SVG Export Plug-In . SVG Version: 6.00 Build 0)  -->
<svg version="1.1" id="Layer_1" xmlns="http://www.w3.org/2000/svg" xmlns:xlink="http://www.w3.org/1999/xlink" x="0px" y="0px"
	 viewBox="0 0 470 402" style="enable-background:new 0 0 470 402;" xml:space="preserve">
<style type="text/css">
	.st0{opacity:0.4;fill:#D6D8E5;enable-background:new    ;}
	.st1{fill:#D5D6E0;}
	.st2{fill:#E9EAF4;}
	.st3{fill:#DFE0EA;}
	.st4{fill:#2B303F;}
	.st5{fill:#00AEEF;}
	.st6{fill:#D6D8E5;}
	.st7{fill:#EDF0F9;}
	.st8{fill:#E2E5F2;}
	.st9{fill:#E5E5E5;}
	.st10{fill:#F4F4F4;}
	.st11{fill:#BFBFBF;}
	.st12{fill:#DCEEFF;}
	.st13{fill:#DBDBDB;}
	.st14{fill:#1E212D;}
	.st15{fill:#FFCEA9;}
	.st16{fill:#EDEDED;}
	.st17{fill:#38226D;}
	.st18{fill:#3A2C6D;}
</style>
<title>Web_hosting_SVG</title>
<g id="Слой_2">
	<g id="Слой_1-2">
		<polygon class="st0" points="98.8,327.7 98,326.3 229.4,250.4 231,251.4 		"/>
		<rect x="278.7" y="115.7" transform="matrix(0.5 -0.866 0.866 0.5 -60.9197 357.8815)" class="st0" width="1.6" height="232.1"/>
		<polygon class="st0" points="382.8,207.6 312.5,167 382.8,126.4 453.1,167 		"/>
		<polygon class="st1" points="450.9,158 389.6,122.6 328.3,158 319.3,152.8 319.3,163.2 319.3,163.2 389.6,203.8 459.9,163.2 
			459.9,152.8 		"/>
		<polygon class="st2" points="389.6,193.4 319.3,152.8 389.6,112.2 459.9,152.8 		"/>
		<polygon class="st2" points="389.6,67.4 331.2,33.7 389.6,0 447.9,33.7 		"/>
		<polygon class="st3" points="331.2,33.7 331.2,153.8 389.6,187.5 389.6,67.4 		"/>
		<polygon class="st1" points="389.6,187.5 447.9,153.8 447.9,33.7 389.6,67.4 		"/>
		<polygon class="st4" points="409.4,82.1 399.3,87.9 399.3,76.3 409.4,70.4 		"/>
		<polygon class="st4" points="441.4,63.6 412.5,80.3 412.5,68.6 441.4,51.9 		"/>
		<polygon class="st4" points="409.4,99.1 399.3,104.9 399.3,93.3 409.4,87.4 		"/>
		<polygon class="st4" points="441.4,80.6 412.5,97.3 412.5,85.6 441.4,68.9 		"/>
		<polygon class="st4" points="409.4,116.1 399.3,121.9 399.3,110.3 409.4,104.4 		"/>
		<polygon class="st4" points="441.4,97.6 412.5,114.3 412.5,102.7 441.4,85.9 		"/>
		<polygon class="st4" points="409.4,133.1 399.3,138.9 399.3,127.3 409.4,121.4 		"/>
		<polygon class="st4" points="441.4,114.6 412.5,131.3 412.5,119.7 441.4,102.9 		"/>
		<polygon class="st4" points="409.4,150.1 399.3,155.9 399.3,144.3 409.4,138.4 		"/>
		<polygon class="st4" points="441.4,131.6 412.5,148.3 412.5,136.7 441.4,119.9 		"/>
		<polygon class="st4" points="348.5,70.8 338.5,65 338.5,53.4 348.5,59.2 		"/>
		<polygon class="st4" points="380.4,89.1 351.6,72.5 351.6,60.9 380.4,77.5 		"/>
		<polygon class="st4" points="348.5,87.6 338.5,81.9 338.5,70.3 348.5,76.1 		"/>
		<polygon class="st4" points="380.4,106 351.6,89.4 351.6,77.8 380.4,94.4 		"/>
		<polygon class="st4" points="348.5,104.5 338.5,98.7 338.5,87.2 348.5,93 		"/>
		<polygon class="st4" points="380.4,122.9 351.6,106.3 351.6,94.7 380.4,111.3 		"/>
		<polygon class="st4" points="348.5,121.4 338.5,115.6 338.5,104.1 348.5,109.8 		"/>
		<polygon class="st4" points="380.4,139.8 351.6,123.2 351.6,111.6 380.4,128.2 		"/>
		<polygon class="st4" points="348.5,138.3 338.5,132.5 338.5,120.9 348.5,126.7 		"/>
		<polygon class="st4" points="380.4,156.7 351.6,140.1 351.6,128.5 380.4,145.1 		"/>
		<polygon class="st5" points="331.2,147.1 389.6,180.2 447.9,145.9 447.9,153.8 389.6,187.5 331.2,153.8 		"/>
		<path class="st4" d="M390.8,34.5c-1.3,0.3-2.6,0.3-3.8,0l-2.9,1.7c3.1,1.1,6.5,1.1,9.6,0L390.8,34.5z"/>
		<path class="st4" d="M393.6,32.9l2.9,1.7c1.5-1.2,1.8-3.3,0.7-4.9c-0.2-0.3-0.4-0.5-0.7-0.7l-2.9,1.7
			C394.1,31.3,394.1,32.2,393.6,32.9z"/>
		<path class="st4" d="M387,29.1c1.3-0.3,2.6-0.3,3.8,0l2.9-1.7c-3.1-1.1-6.5-1.1-9.6,0L387,29.1z"/>
		<path class="st4" d="M384.2,30.7l-2.9-1.7c-1.5,1.1-1.9,3.3-0.7,4.9c0.2,0.3,0.4,0.5,0.7,0.7l2.9-1.7
			C383.7,32.2,383.7,31.3,384.2,30.7z"/>
		<path class="st4" d="M398.6,35.8l2.8,1.6c4.5-3.3,4.5-8,0-11.3l-2.8,1.6C401.6,30.2,401.6,33.4,398.6,35.8z"/>
		<path class="st4" d="M395.9,37.4c-4.5,1.7-9.4,1.7-13.9,0l-2.8,1.6c6.2,2.6,13.3,2.6,19.5,0L395.9,37.4z"/>
		<path class="st4" d="M382,26.2c4.5-1.7,9.4-1.7,13.9,0l2.8-1.6c-6.2-2.6-13.3-2.6-19.5,0L382,26.2z"/>
		<path class="st4" d="M379.2,27.8l-2.8-1.6c-4.5,3.3-4.5,8,0,11.3l2.8-1.6C376.3,33.4,376.2,30.2,379.2,27.8z"/>
		<path class="st4" d="M403.5,38.6l2.8,1.6c7.1-4.9,7.1-12,0-16.9l-2.8,1.6C409.1,28.9,409.1,34.6,403.5,38.6z"/>
		<path class="st4" d="M400.8,40.2c-6.9,3.2-16.8,3.2-23.7,0l-2.8,1.6c8.4,4.1,20.8,4.1,29.3,0L400.8,40.2z"/>
		<path class="st4" d="M377.1,23.3c6.9-3.2,16.8-3.2,23.7,0l2.8-1.6c-8.4-4.1-20.8-4.1-29.3,0L377.1,23.3z"/>
		<path class="st4" d="M374.3,24.9l-2.8-1.6c-7.1,4.9-7.1,12,0,16.9l2.8-1.6C368.7,34.6,368.7,28.9,374.3,24.9z"/>
		<polygon class="st0" points="162.5,212.5 92.2,171.9 162.5,131.3 232.8,171.9 		"/>
		<polygon class="st1" points="230.6,162.9 169.2,127.5 107.9,162.9 98.9,157.7 98.9,168.1 98.9,168.1 169.2,208.7 239.5,168.1 
			239.5,157.7 		"/>
		<polygon class="st2" points="169.2,198.3 98.9,157.7 169.2,117.1 239.5,157.7 		"/>
		<polygon class="st2" points="169.2,72.3 110.9,38.6 169.2,4.9 227.6,38.6 		"/>
		<polygon class="st3" points="110.9,38.6 110.9,158.7 169.2,192.4 169.2,72.3 		"/>
		<polygon class="st1" points="169.2,192.4 227.6,158.7 227.6,38.6 169.2,72.3 		"/>
		<polygon class="st4" points="189.1,87 179,92.8 179,81.2 189.1,75.3 		"/>
		<polygon class="st4" points="221.1,68.5 192.2,85.2 192.2,73.5 221.1,56.8 		"/>
		<polygon class="st4" points="189.1,104 179,109.8 179,98.2 189.1,92.3 		"/>
		<polygon class="st4" points="221.1,85.5 192.2,102.2 192.2,90.6 221.1,73.8 		"/>
		<polygon class="st4" points="189.1,121 179,126.8 179,115.2 189.1,109.3 		"/>
		<polygon class="st4" points="221.1,102.5 192.2,119.2 192.2,107.6 221.1,90.9 		"/>
		<polygon class="st4" points="189.1,138 179,143.8 179,132.2 189.1,126.3 		"/>
		<polygon class="st4" points="221.1,119.5 192.2,136.2 192.2,124.6 221.1,107.9 		"/>
		<polygon class="st4" points="189.1,155 179,160.8 179,149.2 189.1,143.3 		"/>
		<polygon class="st4" points="221.1,136.5 192.2,153.2 192.2,141.6 221.1,124.9 		"/>
		<polygon class="st4" points="128.2,75.7 118.2,69.9 118.2,58.3 128.2,64.1 		"/>
		<polygon class="st4" points="160,94 131.3,77.4 131.3,65.8 160,82.4 		"/>
		<polygon class="st4" points="128.2,92.6 118.2,86.8 118.2,75.2 128.2,81 		"/>
		<polygon class="st4" points="160,110.9 131.3,94.3 131.3,82.7 160,99.3 		"/>
		<polygon class="st4" points="128.2,109.5 118.2,103.7 118.2,92.1 128.2,97.9 		"/>
		<polygon class="st4" points="160,127.8 131.3,111.2 131.3,99.6 160,116.2 		"/>
		<polygon class="st4" points="128.2,126.3 118.2,120.5 118.2,109 128.2,114.8 		"/>
		<polygon class="st4" points="160,144.7 131.3,128.1 131.3,116.5 160,133.1 		"/>
		<polygon class="st4" points="128.2,143.2 118.2,137.4 118.2,125.8 128.2,131.6 		"/>
		<polygon class="st4" points="160,161.6 131.3,145 131.3,133.4 160,150 		"/>
		<polygon class="st5" points="110.9,152 169.2,185.1 227.6,150.8 227.6,158.7 169.2,192.4 110.9,158.7 		"/>
		<path class="st4" d="M170.5,39.4c-1.3,0.3-2.6,0.3-3.8,0l-2.9,1.7c3.1,1.1,6.5,1.1,9.7,0L170.5,39.4z"/>
		<path class="st4" d="M173.3,37.8l2.9,1.7c1.5-1.2,1.8-3.4,0.6-4.9c-0.2-0.2-0.4-0.5-0.6-0.6l-2.9,1.7
			C173.7,36.3,173.7,37.1,173.3,37.8z"/>
		<path class="st4" d="M166.7,34c1.3-0.3,2.6-0.3,3.8,0l2.9-1.7c-3.1-1.1-6.5-1.1-9.7,0L166.7,34z"/>
		<path class="st4" d="M163.9,35.6l-2.9-1.7c-1.5,1.2-1.8,3.4-0.6,4.9c0.2,0.2,0.4,0.5,0.6,0.6l2.9-1.7
			C163.4,37.1,163.4,36.2,163.9,35.6z"/>
		<path class="st4" d="M178.3,40.7l2.8,1.6c4.5-3.3,4.5-8,0-11.3l-2.8,1.6C181.2,35.1,181.2,38.3,178.3,40.7z"/>
		<path class="st4" d="M175.5,42.3c-4.5,1.7-9.4,1.7-13.9,0l-2.8,1.6c6.2,2.6,13.3,2.6,19.5,0L175.5,42.3z"/>
		<path class="st4" d="M161.6,31.1c4.5-1.7,9.4-1.7,13.9,0l2.8-1.6c-6.2-2.6-13.2-2.6-19.5,0L161.6,31.1z"/>
		<path class="st4" d="M158.9,32.7l-2.8-1.6c-4.5,3.3-4.5,7.9,0,11.3l2.8-1.6C155.9,38.3,155.9,35.1,158.9,32.7z"/>
		<path class="st4" d="M183.2,43.5l2.8,1.6c7.1-4.9,7.1-12,0-16.9l-2.8,1.6C188.8,33.8,188.8,39.6,183.2,43.5z"/>
		<path class="st4" d="M180.4,45.1c-6.9,3.2-16.8,3.2-23.7,0l-2.8,1.6c8.4,4.1,20.8,4.1,29.3,0L180.4,45.1z"/>
		<path class="st4" d="M156.7,28.2c6.9-3.2,16.8-3.2,23.7,0l2.8-1.6c-8.4-4.1-20.8-4.1-29.3,0L156.7,28.2z"/>
		<path class="st4" d="M154,29.8l-2.8-1.6c-7.1,4.9-7.1,12,0,16.9l2.8-1.6C148.4,39.6,148.4,33.8,154,29.8z"/>
		<polygon class="st0" points="268.7,273.1 198.4,232.5 268.7,191.9 339,232.5 		"/>
		<polygon class="st1" points="336.8,223.6 275.5,188.1 214.2,223.6 205.2,218.4 205.2,228.7 205.2,228.7 275.5,269.3 345.8,228.7 
			345.8,218.4 		"/>
		<polygon class="st2" points="275.5,259 205.2,218.4 275.5,177.8 345.8,218.4 		"/>
		<polygon class="st2" points="275.5,132.9 217.1,99.2 275.5,65.6 333.8,99.3 		"/>
		<polygon class="st3" points="217.1,99.2 217.1,219.4 275.5,253.1 275.5,132.9 		"/>
		<polygon class="st1" points="275.5,253.1 333.8,219.4 333.8,99.3 275.5,132.9 		"/>
		<polygon class="st4" points="295.3,147.7 285.2,153.5 285.2,141.8 295.3,136 		"/>
		<polygon class="st4" points="327.3,129.2 298.4,145.9 298.4,134.2 327.3,117.5 		"/>
		<polygon class="st4" points="295.3,164.7 285.2,170.5 285.2,158.8 295.3,153 		"/>
		<polygon class="st4" points="327.3,146.2 298.4,162.9 298.4,151.2 327.3,134.5 		"/>
		<polygon class="st4" points="295.3,181.7 285.2,187.5 285.2,175.8 295.3,170 		"/>
		<polygon class="st4" points="327.3,163.2 298.4,179.9 298.4,168.2 327.3,151.5 		"/>
		<polygon class="st4" points="295.3,198.7 285.2,204.5 285.2,192.8 295.3,187 		"/>
		<polygon class="st4" points="327.3,180.2 298.4,196.9 298.4,185.2 327.3,168.5 		"/>
		<polygon class="st4" points="295.3,215.7 285.2,221.5 285.2,209.8 295.3,204 		"/>
		<polygon class="st4" points="327.3,197.2 298.4,213.9 298.4,202.2 327.3,185.5 		"/>
		<polygon class="st4" points="234.5,136.3 224.4,130.5 224.4,118.9 234.5,124.7 		"/>
		<polygon class="st4" points="266.3,154.7 237.5,138.1 237.5,126.5 266.3,143.1 		"/>
		<polygon class="st4" points="234.5,153.2 224.4,147.4 224.4,135.8 234.5,141.6 		"/>
		<polygon class="st4" points="266.3,171.6 237.5,155 237.5,143.4 266.3,160 		"/>
		<polygon class="st4" points="234.5,170.1 224.4,164.3 224.4,152.7 234.5,158.5 		"/>
		<polygon class="st4" points="266.3,188.5 237.5,171.9 237.5,160.3 266.3,176.9 		"/>
		<polygon class="st4" points="234.5,187 224.4,181.2 224.4,169.6 234.5,175.4 		"/>
		<polygon class="st4" points="266.3,205.4 237.5,188.8 237.5,177.2 266.3,193.8 		"/>
		<polygon class="st4" points="234.5,203.9 224.4,198.1 224.4,186.5 234.5,192.3 		"/>
		<polygon class="st4" points="266.3,222.3 237.5,205.7 237.5,194.1 266.3,210.7 		"/>
		<polygon class="st5" points="217.1,212.6 275.5,245.7 333.8,211.5 333.8,219.4 275.5,253.1 217.1,219.4 		"/>
		<path class="st4" d="M276.7,100.1c-1.3,0.3-2.6,0.3-3.8,0l-2.9,1.7c3.1,1.1,6.5,1.1,9.7,0L276.7,100.1z"/>
		<path class="st4" d="M279.5,98.4l2.9,1.7c1.5-1.2,1.8-3.4,0.6-4.9c-0.2-0.2-0.4-0.5-0.6-0.6l-2.9,1.7
			C280,96.9,280,97.8,279.5,98.4z"/>
		<path class="st4" d="M272.9,94.6c1.3-0.3,2.6-0.3,3.8,0l2.9-1.7c-3.1-1.1-6.5-1.1-9.7,0L272.9,94.6z"/>
		<path class="st4" d="M270.1,96.2l-2.9-1.7c-1.5,1.2-1.8,3.4-0.6,4.9c0.2,0.2,0.4,0.5,0.6,0.6l2.9-1.7
			C269.7,97.8,269.7,96.9,270.1,96.2z"/>
		<path class="st4" d="M284.6,101.3l2.8,1.6c4.5-3.3,4.5-8,0-11.3l-2.8,1.6C287.5,95.7,287.5,99,284.6,101.3z"/>
		<path class="st4" d="M281.8,103c-4.5,1.7-9.4,1.7-13.9,0l-2.8,1.6c6.2,2.6,13.3,2.6,19.5,0L281.8,103z"/>
		<path class="st4" d="M267.9,91.7c4.5-1.7,9.4-1.7,13.9,0l2.8-1.6c-6.2-2.6-13.3-2.6-19.5,0L267.9,91.7z"/>
		<path class="st4" d="M265.1,93.3l-2.8-1.6c-4.5,3.3-4.5,7.9,0,11.3l2.8-1.6C262.2,99,262.2,95.7,265.1,93.3z"/>
		<path class="st4" d="M289.5,104.2l2.8,1.6c7.1-4.9,7.1-12,0-16.9l-2.8,1.6C295.1,94.5,295.1,100.2,289.5,104.2z"/>
		<path class="st4" d="M286.7,105.8c-6.9,3.2-16.8,3.2-23.7,0l-2.8,1.6c8.4,4.1,20.8,4.1,29.3,0L286.7,105.8z"/>
		<path class="st4" d="M263,88.9c6.9-3.2,16.8-3.2,23.7,0l2.8-1.6c-8.4-4.1-20.8-4.1-29.3,0L263,88.9z"/>
		<path class="st4" d="M260.2,90.5l-2.8-1.6c-7.1,4.9-7.1,12,0,16.9l2.8-1.6C254.6,100.2,254.6,94.5,260.2,90.5z"/>
		<polygon class="st0" points="382.9,339.1 312.6,298.5 382.9,257.9 453.2,298.5 		"/>
		<polygon class="st1" points="451,289.5 389.7,254.2 328.4,289.5 319.4,284.4 319.4,294.7 319.4,294.7 389.7,335.3 460,294.7 
			460,284.4 		"/>
		<polygon class="st2" points="389.7,324.9 319.4,284.4 389.7,243.8 460,284.4 		"/>
		<polygon class="st2" points="389.7,198.9 331.3,165.3 389.7,131.6 448,165.3 		"/>
		<polygon class="st3" points="331.3,165.3 331.3,285.4 389.7,319.1 389.7,198.9 		"/>
		<polygon class="st1" points="389.7,319.1 448,285.4 448,165.3 389.7,198.9 		"/>
		<polygon class="st4" points="409.5,213.6 399.4,219.5 399.4,207.8 409.5,202 		"/>
		<polygon class="st4" points="441.5,195.2 412.6,211.9 412.6,200.2 441.5,183.5 		"/>
		<polygon class="st4" points="409.5,230.6 399.4,236.5 399.4,224.8 409.5,219 		"/>
		<polygon class="st4" points="441.5,212.2 412.6,228.9 412.6,217.2 441.5,200.5 		"/>
		<polygon class="st4" points="409.5,247.6 399.4,253.5 399.4,241.8 409.5,236 		"/>
		<polygon class="st4" points="441.5,229.2 412.6,245.9 412.6,234.2 441.5,217.5 		"/>
		<polygon class="st4" points="409.5,264.7 399.4,270.5 399.4,258.8 409.5,253 		"/>
		<polygon class="st4" points="441.5,246.2 412.6,262.9 412.6,251.2 441.5,234.5 		"/>
		<polygon class="st4" points="409.5,281.7 399.4,287.5 399.4,275.8 409.5,270 		"/>
		<polygon class="st4" points="441.5,263.2 412.6,279.9 412.6,268.2 441.5,251.5 		"/>
		<polygon class="st4" points="348.7,202.3 338.6,196.5 338.6,184.9 348.7,190.7 		"/>
		<polygon class="st4" points="380.5,220.7 351.7,204.1 351.7,192.5 380.5,209.1 		"/>
		<polygon class="st4" points="348.7,219.2 338.6,213.4 338.6,201.8 348.7,207.6 		"/>
		<polygon class="st4" points="380.5,237.6 351.7,221 351.7,209.4 380.5,226 		"/>
		<polygon class="st4" points="348.7,236.1 338.6,230.3 338.6,218.7 348.7,224.5 		"/>
		<polygon class="st4" points="380.5,254.5 351.7,237.9 351.7,226.3 380.5,242.9 		"/>
		<polygon class="st4" points="348.7,253 338.6,247.2 338.6,235.6 348.7,241.4 		"/>
		<polygon class="st4" points="380.5,271.4 351.7,254.8 351.7,243.2 380.5,259.8 		"/>
		<polygon class="st4" points="348.7,269.9 338.6,264.1 338.6,252.5 348.7,258.3 		"/>
		<polygon class="st4" points="380.5,288.2 351.7,271.6 351.7,260.1 380.5,276.7 		"/>
		<polygon class="st5" points="331.3,278.6 389.7,311.7 448,277.5 448,285.4 389.7,319.1 331.3,285.4 		"/>
		<path class="st4" d="M390.9,166c-1.3,0.3-2.6,0.3-3.8,0l-2.9,1.7c3.1,1.1,6.5,1.1,9.7,0L390.9,166z"/>
		<path class="st4" d="M393.8,164.4l2.9,1.7c1.5-1.2,1.8-3.3,0.7-4.9c-0.2-0.3-0.4-0.5-0.7-0.7l-2.9,1.7
			C394.3,162.9,394.3,163.8,393.8,164.4z"/>
		<path class="st4" d="M387.1,160.6c1.3-0.3,2.6-0.3,3.8,0l2.9-1.7c-3.1-1.1-6.5-1.1-9.6,0L387.1,160.6z"/>
		<path class="st4" d="M384.3,162.2l-2.9-1.7c-1.5,1.2-1.8,3.3-0.7,4.9c0.2,0.3,0.4,0.5,0.7,0.7l2.9-1.7
			C383.8,163.8,383.9,162.9,384.3,162.2z"/>
		<path class="st4" d="M398.8,167.3l2.8,1.6c4.5-3.3,4.5-8,0-11.3l-2.8,1.6C401.7,161.7,401.7,165,398.8,167.3z"/>
		<path class="st4" d="M396,168.9c-4.5,1.7-9.4,1.7-13.9,0l-2.8,1.6c6.2,2.6,13.3,2.6,19.5,0L396,168.9z"/>
		<path class="st4" d="M382.1,157.7c4.5-1.7,9.4-1.7,13.9,0l2.8-1.6c-6.2-2.6-13.3-2.6-19.5,0L382.1,157.7z"/>
		<path class="st4" d="M379.3,159.3l-2.8-1.6c-4.5,3.3-4.5,8,0,11.3l2.8-1.6C376.4,164.9,376.4,161.7,379.3,159.3z"/>
		<path class="st4" d="M403.7,170.2l2.8,1.6c7.1-4.9,7.1-12,0-16.9l-2.8,1.6C409.3,160.5,409.3,166.2,403.7,170.2z"/>
		<path class="st4" d="M400.9,171.8c-6.9,3.2-16.8,3.2-23.7,0l-2.8,1.6c8.4,4.1,20.8,4.1,29.3,0L400.9,171.8z"/>
		<path class="st4" d="M377.2,154.9c6.9-3.2,16.8-3.2,23.7,0l2.8-1.6c-8.4-4.1-20.8-4.1-29.3,0L377.2,154.9z"/>
		<path class="st4" d="M374.4,156.5l-2.8-1.6c-7.1,4.9-7.1,12,0,16.9l2.8-1.6C368.8,166.2,368.8,160.5,374.4,156.5z"/>
		<path class="st0" d="M45.4,392.2L3.2,367.8C-1.6,365-1,360.2,4.5,357L26,344.7c5.5-3.2,13.9-3.5,18.6-0.8l42.1,24.3
			c4.8,2.8,4.2,7.6-1.3,10.8L64,391.4C58.5,394.6,50.1,394.9,45.4,392.2z"/>
		<path class="st6" d="M108.7,361.8V303l-89.9-10.1v59.2l0,0c-0.1,1.8,1,3.5,3.2,4.8l42.1,24.3c4.8,2.8,13.1,2.4,18.6-0.8l21.4-12.3
			C107.2,366.3,108.7,364,108.7,361.8L108.7,361.8z"/>
		<path class="st7" d="M108.6,309.4V303h-6.9l-38.4-22.2c-4.8-2.8-13.1-2.4-18.6,0.8l-21.4,12.3c-0.4,0.2-0.7,0.5-1.1,0.7l-3.4-1.8
			c0,0,0,6.8,0,7l0,0c0,1.8,1,3.5,3.2,4.8L64.1,329c4.8,2.8,13.1,2.4,18.6-0.8l21.4-12.3C107.3,314.1,108.8,311.7,108.6,309.4
			L108.6,309.4z"/>
		<path class="st8" d="M64.1,322L22,297.7c-4.8-2.8-4.2-7.6,1.3-10.8l21.4-12.3c5.5-3.2,13.9-3.5,18.6-0.8l42.1,24.3
			c4.8,2.8,4.2,7.6-1.3,10.8l-21.4,12.4C77.2,324.4,68.8,324.8,64.1,322z"/>
		<g id="_Группа_">
			<path id="_Контур_" class="st9" d="M85.7,299.9L85.7,299.9c0,0.8-0.4,1.5-1.1,1.8L65.2,313c-0.6,0.4-1.4,0.4-2.1,0
				L36,297.2c-0.6-0.4-1-1.1-1-1.8v-0.1L85.7,299.9z"/>
			<path id="_Контур_2" class="st9" d="M84.6,301.8L65.2,313c-0.3,0.2-0.7,0.3-1,0.3V300h21.5
				C85.7,300.7,85.3,301.4,84.6,301.8z"/>
			<g id="_Группа_2">
				<path id="_Контур_3" class="st10" d="M65,311.9c-0.5,0.3-1,0.3-1.5,0l-28.2-16.3c-0.2-0.1-0.3-0.3-0.3-0.5
					c0-0.1,0.1-0.2,0.3-0.3l20.8-12l29.7,17.1L65,311.9z"/>
			</g>
			<g id="_Группа_3">
				<polygon id="_Контур_4" class="st11" points="46.8,299.9 47,300 56.1,305.2 61,302.4 61.2,302.3 52,297 				"/>
				<polygon id="_Контур_5" class="st9" points="47,300 56.1,305.2 61,302.4 52,297.1 				"/>
			</g>
			<path class="st4" d="M77.8,301l1.3,0.8c0.1,0.1,0.3,0.1,0.4,0l1.2-0.7c0.1-0.1,0.1-0.2,0-0.2l-1.3-0.8c-0.1-0.1-0.3-0.1-0.4,0
				l-1.2,0.7C77.7,300.8,77.7,300.9,77.8,301z"/>
			<path class="st4" d="M76,299.9l1.3,0.8c0.1,0.1,0.3,0.1,0.4,0L79,300c0.1-0.1,0.1-0.2,0-0.2l-1.3-0.8c-0.1-0.1-0.3-0.1-0.4,0
				l-1.2,0.7C75.9,299.7,75.9,299.8,76,299.9z"/>
			<path class="st4" d="M74.1,298.8l1.3,0.8c0.1,0.1,0.3,0.1,0.4,0l1.2-0.7c0.1-0.1,0.1-0.2,0-0.2l-1.3-0.8c-0.1-0.1-0.3-0.1-0.4,0
				l-1.2,0.7C74.1,298.7,74,298.8,74.1,298.8z"/>
			<path class="st4" d="M72.3,297.8l1.3,0.8c0.1,0.1,0.3,0.1,0.4,0l1.2-0.7c0.1-0.1,0.1-0.2,0-0.2l-1.3-0.8c-0.1-0.1-0.3-0.1-0.4,0
				l-1.2,0.7C72.2,297.6,72.2,297.7,72.3,297.8z"/>
			<path class="st4" d="M70.4,296.7l1.3,0.8c0.1,0.1,0.3,0.1,0.4,0l1.3-0.7c0.1-0.1,0.1-0.2,0-0.2l-1.3-0.8c-0.1-0.1-0.3-0.1-0.4,0
				l-1.3,0.7C70.4,296.5,70.3,296.6,70.4,296.7z"/>
			<path class="st4" d="M68.6,295.6l1.3,0.8c0.1,0.1,0.3,0.1,0.4,0l1.3-0.7c0.1-0.1,0.1-0.2,0-0.2l-1.3-0.8c-0.1-0.1-0.3-0.1-0.4,0
				l-1.3,0.7C68.5,295.4,68.5,295.6,68.6,295.6z"/>
			<path class="st4" d="M66.7,294.6l1.3,0.8c0.1,0.1,0.3,0.1,0.4,0l1.3-0.7c0.1-0.1,0.1-0.2,0-0.2l-1.3-0.8c-0.1-0.1-0.3-0.1-0.4,0
				l-1.3,0.7C66.7,294.4,66.6,294.5,66.7,294.6z"/>
			<path class="st4" d="M64.9,293.5l1.3,0.8c0.1,0.1,0.3,0.1,0.4,0l1.3-0.7c0.1-0.1,0.1-0.2,0-0.2l-1.3-0.8c-0.1-0.1-0.3-0.1-0.4,0
				l-1.3,0.7C64.8,293.3,64.8,293.4,64.9,293.5z"/>
			<path class="st4" d="M63,292.4l1.3,0.8c0.1,0.1,0.3,0.1,0.4,0l1.3-0.7c0.1-0.1,0.1-0.2,0-0.2l-1.3-0.8c-0.1-0.1-0.3-0.1-0.4,0
				l-1.3,0.7C63,292.2,62.9,292.4,63,292.4z"/>
			<path class="st4" d="M61.2,291.3l1.3,0.8c0.1,0.1,0.3,0.1,0.4,0l1.3-0.7c0.1-0.1,0.1-0.2,0-0.2l-1.3-0.8c-0.1-0.1-0.3-0.1-0.4,0
				l-1.3,0.7C61.1,291.2,61.1,291.3,61.2,291.3z"/>
			<path class="st4" d="M59.3,290.3l1.3,0.8c0.1,0.1,0.3,0.1,0.4,0l1.3-0.7c0.1-0.1,0.1-0.2,0-0.2l-1.3-0.8c-0.1-0.1-0.3-0.1-0.4,0
				l-1.3,0.7C59.3,290.1,59.2,290.2,59.3,290.3z"/>
			<path class="st4" d="M57.5,289.2l1.3,0.8c0.1,0.1,0.3,0.1,0.4,0l1.2-0.7c0.1-0.1,0.1-0.2,0-0.2l-1.3-0.8c-0.1-0.1-0.3-0.1-0.4,0
				l-1.2,0.7C57.4,289,57.4,289.1,57.5,289.2z"/>
			<path class="st4" d="M55.7,288.1l1.3,0.8c0.1,0.1,0.3,0.1,0.4,0l1.2-0.7c0.1-0.1,0.1-0.2,0-0.2l-1.3-0.8c-0.1-0.1-0.3-0.1-0.4,0
				l-1.2,0.7C55.6,288,55.5,288.1,55.7,288.1z"/>
			<path class="st4" d="M52.9,286.6l2.2,1.3c0.1,0.1,0.3,0.1,0.4,0l1.2-0.7c0.1-0.1,0.1-0.2,0-0.2l-2.2-1.3c-0.1-0.1-0.3-0.1-0.4,0
				l-1.3,0.7C52.8,286.4,52.8,286.5,52.9,286.6z"/>
			<path class="st4" d="M73.3,300.4l1.3,0.8c0.1,0.1,0.3,0.1,0.4,0l1.2-0.7c0.1-0.1,0.1-0.2,0-0.2l-1.3-0.8c-0.1-0.1-0.3-0.1-0.4,0
				l-1.2,0.7C73.2,300.2,73.2,300.4,73.3,300.4z"/>
			<path class="st4" d="M71.5,299.3l1.3,0.8c0.1,0.1,0.3,0.1,0.4,0l1.3-0.7c0.1-0.1,0.1-0.2,0-0.2l-1.3-0.8c-0.1-0.1-0.3-0.1-0.4,0
				l-1.3,0.7C71.4,299.2,71.3,299.3,71.5,299.3z"/>
			<path class="st4" d="M69.6,298.3l1.3,0.8c0.1,0.1,0.3,0.1,0.4,0l1.2-0.7c0.1-0.1,0.1-0.2,0-0.2l-1.3-0.8c-0.1-0.1-0.3-0.1-0.4,0
				l-1.2,0.7C69.5,298.1,69.5,298.2,69.6,298.3z"/>
			<path class="st4" d="M67.7,297.2L69,298c0.1,0.1,0.3,0.1,0.4,0l1.3-0.7c0.1-0.1,0.1-0.2,0-0.2l-1.3-0.8c-0.1-0.1-0.3-0.1-0.4,0
				l-1.3,0.7C67.7,297,67.6,297.2,67.7,297.2z"/>
			<path class="st4" d="M65.9,296.1l1.3,0.8c0.1,0.1,0.3,0.1,0.4,0l1.2-0.7c0.1-0.1,0.1-0.2,0-0.2l-1.3-0.8c-0.1-0.1-0.3-0.1-0.4,0
				l-1.2,0.7C65.8,296,65.8,296.1,65.9,296.1z"/>
			<path class="st4" d="M64.1,295.1l1.3,0.8c0.1,0.1,0.3,0.1,0.4,0l1.3-0.7c0.1-0.1,0.1-0.2,0-0.2l-1.3-0.8c-0.1-0.1-0.3-0.1-0.4,0
				l-1.3,0.7C64,294.9,63.9,295,64.1,295.1z"/>
			<path class="st4" d="M62.2,294l1.3,0.8c0.1,0.1,0.3,0.1,0.4,0l1.2-0.7c0.1-0.1,0.1-0.2,0-0.2l-1.3-0.8c-0.1-0.1-0.3-0.1-0.4,0
				l-1.2,0.7C62.1,293.8,62.1,293.9,62.2,294z"/>
			<path class="st4" d="M60.4,292.9l1.3,0.8c0.1,0.1,0.3,0.1,0.4,0l1.3-0.7c0.1-0.1,0.1-0.2,0-0.2L62,292c-0.1-0.1-0.3-0.1-0.4,0
				l-1.3,0.7C60.3,292.8,60.2,292.9,60.4,292.9z"/>
			<path class="st4" d="M58.5,291.9l1.3,0.8c0.1,0.1,0.3,0.1,0.4,0l1.2-0.7c0.1-0.1,0.1-0.2,0-0.2l-1.3-0.8c-0.1-0.1-0.3-0.1-0.4,0
				l-1.2,0.7C58.4,291.7,58.4,291.8,58.5,291.9z"/>
			<path class="st4" d="M56.6,290.8l1.3,0.8c0.1,0.1,0.3,0.1,0.4,0l1.3-0.7c0.1-0.1,0.1-0.2,0-0.2l-1.3-0.8c-0.1-0.1-0.3-0.1-0.4,0
				l-1.3,0.7C56.6,290.6,56.5,290.7,56.6,290.8z"/>
			<path class="st4" d="M54.8,289.7l1.3,0.8c0.1,0.1,0.3,0.1,0.4,0l1.3-0.7c0.1-0.1,0.1-0.2,0-0.2l-1.3-0.8c-0.1-0.1-0.3-0.1-0.4,0
				l-1.3,0.7C54.7,289.6,54.7,289.7,54.8,289.7z"/>
			<path class="st4" d="M52.9,288.7l1.3,0.8c0.1,0.1,0.3,0.1,0.4,0l1.2-0.7c0.1-0.1,0.1-0.2,0-0.2l-1.3-0.8c-0.1-0.1-0.3-0.1-0.4,0
				l-1.2,0.7C52.8,288.5,52.8,288.6,52.9,288.7z"/>
			<path class="st4" d="M75.2,301.5l2.2,1.3c0.1,0.1,0.3,0.1,0.4,0L79,302c0.1-0.1,0.1-0.2,0-0.2l-2.2-1.3c-0.1-0.1-0.3-0.1-0.4,0
				l-1.3,0.7C75.1,301.3,75.1,301.4,75.2,301.5z"/>
			<path class="st4" d="M52.8,286.6l1.3,0.8c0.1,0.1,0.1,0.2,0,0.2l-1.3,0.8c-0.1,0.1-0.3,0.1-0.4,0l-0.1-0.1
				c-0.1-0.1-0.2-0.1-0.4,0l-1.4,0.8c-0.1,0.1-0.3,0.1-0.4,0l-0.8-0.5c-0.1,0-0.1-0.1-0.1-0.2c0,0,0,0,0.1-0.1l1.3-0.7l0.3-0.2
				l0.2-0.1l0.2-0.1l1.1-0.6C52.5,286.6,52.7,286.6,52.8,286.6z"/>
			<path class="st4" d="M70.7,305.1l1.3,0.8c0.1,0.1,0.3,0.1,0.4,0l1.3-0.7c0.1-0.1,0.1-0.2,0-0.2l-1.3-0.8c-0.1-0.1-0.3-0.1-0.4,0
				l-1.3,0.7C70.6,304.9,70.6,305,70.7,305.1z"/>
			<path class="st4" d="M68.8,304l1.3,0.8c0.1,0.1,0.3,0.1,0.4,0l1.2-0.7c0.1-0.1,0.1-0.2,0-0.2l-1.3-0.8c-0.1-0.1-0.3-0.1-0.4,0
				l-1.2,0.7C68.7,303.9,68.7,304,68.8,304z"/>
			<path class="st4" d="M67,303l1.3,0.8c0.1,0.1,0.3,0.1,0.4,0l1.3-0.7c0.1-0.1,0.1-0.2,0-0.2l-1.3-0.8c-0.1-0.1-0.3-0.1-0.4,0
				l-1.3,0.7C66.9,302.8,66.9,302.9,67,303z"/>
			<path class="st4" d="M51.3,293.9l1.3,0.8c0.1,0.1,0.3,0.1,0.4,0l1.2-0.7c0.1-0.1,0.1-0.2,0-0.2l-1.3-0.8c-0.1-0.1-0.3-0.1-0.4,0
				l-1.2,0.7C51.2,293.7,51.2,293.8,51.3,293.9z"/>
			<path class="st4" d="M49.4,292.8l1.3,0.8c0.1,0.1,0.3,0.1,0.4,0l1.3-0.7c0.1-0.1,0.1-0.2,0-0.2l-1.3-0.8c-0.1-0.1-0.3-0.1-0.4,0
				l-1.3,0.7C49.3,292.7,49.3,292.8,49.4,292.8z"/>
			<path class="st4" d="M47.6,291.8l1.3,0.8c0.1,0.1,0.3,0.1,0.4,0l1.2-0.7c0.1-0.1,0.1-0.2,0-0.2l-1.3-0.8c-0.1-0.1-0.3-0.1-0.4,0
				l-1.2,0.7C47.5,291.6,47.5,291.7,47.6,291.8z"/>
			<path class="st4" d="M45.7,290.7l1.3,0.8c0.1,0.1,0.3,0.1,0.4,0l1.3-0.7c0.1-0.1,0.1-0.2,0-0.2l-1.3-0.8c-0.1-0.1-0.3-0.1-0.4,0
				l-1.3,0.7C45.6,290.5,45.6,290.6,45.7,290.7z"/>
			<path class="st4" d="M64.7,301.6l1.8,1c0.1,0.1,0.3,0.1,0.4,0l1.2-0.7c0.1-0.1,0.1-0.2,0-0.2l-1.8-1c-0.1-0.1-0.3-0.1-0.4,0
				l-1.3,0.7C64.6,301.5,64.5,301.6,64.7,301.6z"/>
			<path class="st4" d="M53.1,295l1.8,1c0.1,0.1,0.3,0.1,0.4,0l1.3-0.7c0.1-0.1,0.1-0.2,0-0.2l-1.8-1c-0.1-0.1-0.3-0.1-0.4,0
				l-1.3,0.7C53,294.8,53,294.9,53.1,295z"/>
			<path class="st4" d="M55.4,296.3l8.7,5c0.1,0.1,0.3,0.1,0.4,0l1.2-0.7c0.1-0.1,0.1-0.2,0-0.2l-8.7-5c-0.1-0.1-0.3-0.1-0.4,0
				l-1.2,0.7C55.3,296.1,55.3,296.2,55.4,296.3z"/>
			<path class="st4" d="M71,301.2l1.3,0.8c0.1,0.1,0.3,0.1,0.4,0l1.3-0.7c0.1-0.1,0.1-0.2,0-0.2l-1.3-0.8c-0.1-0.1-0.3-0.1-0.4,0
				L71,301C70.9,301,70.9,301.1,71,301.2z"/>
			<path class="st4" d="M69.2,300.1l1.3,0.8c0.1,0.1,0.3,0.1,0.4,0l1.3-0.7c0.1-0.1,0.1-0.2,0-0.2l-1.3-0.8c-0.1-0.1-0.3-0.1-0.4,0
				l-1.3,0.7C69.1,299.9,69.1,300,69.2,300.1z"/>
			<path class="st4" d="M67.3,299l1.3,0.8c0.1,0.1,0.3,0.1,0.4,0l1.3-0.8c0.1-0.1,0.1-0.2,0-0.2l-1.3-0.7c-0.1-0.1-0.3-0.1-0.4,0
				l-1.3,0.7C67.2,298.9,67.2,299,67.3,299z"/>
			<path class="st4" d="M65.5,298l1.3,0.8c0.1,0.1,0.3,0.1,0.4,0l1.3-0.7c0.1-0.1,0.1-0.2,0-0.2l-1.3-0.8c-0.1-0.1-0.3-0.1-0.4,0
				l-1.3,0.7C65.4,297.8,65.4,297.9,65.5,298z"/>
			<path class="st4" d="M63.6,296.9l1.3,0.8c0.1,0.1,0.3,0.1,0.4,0l1.2-0.7c0.1-0.1,0.1-0.2,0-0.2l-1.3-0.8c-0.1-0.1-0.3-0.1-0.4,0
				l-1.2,0.7C63.5,296.7,63.5,296.8,63.6,296.9z"/>
			<path class="st4" d="M61.8,295.8l1.3,0.8c0.1,0.1,0.3,0.1,0.4,0l1.2-0.7c0.1-0.1,0.1-0.2,0-0.2l-1.3-0.8c-0.1-0.1-0.3-0.1-0.4,0
				l-1.2,0.7C61.6,295.7,61.6,295.8,61.8,295.8z"/>
			<path class="st4" d="M59.9,294.8l1.3,0.8c0.1,0.1,0.3,0.1,0.4,0l1.2-0.7c0.1-0.1,0.1-0.2,0-0.2l-1.3-0.8c-0.1-0.1-0.3-0.1-0.4,0
				l-1.2,0.7C59.8,294.6,59.8,294.7,59.9,294.8z"/>
			<path class="st4" d="M58.1,293.7l1.3,0.8c0.1,0.1,0.3,0.1,0.4,0l1.3-0.7c0.1-0.1,0.1-0.2,0-0.2l-1.3-0.8c-0.1-0.1-0.3-0.1-0.4,0
				l-1.3,0.7C58,293.5,58,293.6,58.1,293.7z"/>
			<path class="st4" d="M56.2,292.6l1.3,0.8c0.1,0.1,0.3,0.1,0.4,0l1.3-0.7c0.1-0.1,0.1-0.2,0-0.2l-1.2-0.8c-0.1-0.1-0.3-0.1-0.4,0
				l-1.3,0.7C56.1,292.4,56.1,292.6,56.2,292.6z"/>
			<path class="st4" d="M54.4,291.6l1.3,0.8c0.1,0.1,0.3,0.1,0.4,0l1.3-0.7c0.1-0.1,0.1-0.2,0-0.2l-1.2-0.8c-0.1-0.1-0.3-0.1-0.4,0
				l-1.3,0.7C54.3,291.4,54.3,291.5,54.4,291.6z"/>
			<path class="st4" d="M52.5,290.5l1.3,0.8c0.1,0.1,0.3,0.1,0.4,0l1.2-0.7c0.1-0.1,0.1-0.2,0-0.2l-1.3-0.8c-0.1-0.1-0.3-0.1-0.4,0
				l-1.2,0.7C52.4,290.3,52.4,290.4,52.5,290.5z"/>
			<path class="st4" d="M50.7,289.4l1.3,0.8c0.1,0.1,0.3,0.1,0.4,0l1.2-0.7c0.1-0.1,0.1-0.2,0-0.2l-1.3-0.8c-0.1-0.1-0.3-0.1-0.4,0
				l-1.2,0.7C50.6,289.2,50.6,289.4,50.7,289.4z"/>
			<path class="st4" d="M72.9,302.2l2.7,1.6c0.1,0.1,0.3,0.1,0.4,0l1.2-0.7c0.1-0.1,0.1-0.2,0-0.2l-2.7-1.6c-0.1-0.1-0.3-0.1-0.4,0
				l-1.2,0.7C72.8,302.1,72.8,302.2,72.9,302.2z"/>
			<path class="st4" d="M70.1,302.7l1.3,0.8c0.1,0.1,0.3,0.1,0.4,0l1.2-0.7c0.1-0.1,0.1-0.2,0-0.2l-1.3-0.7c-0.1-0.1-0.3-0.1-0.4,0
				l-1.2,0.7C70,302.6,70,302.7,70.1,302.7z"/>
			<path class="st4" d="M68.3,301.7l1.3,0.8c0.1,0.1,0.3,0.1,0.4,0l1.3-0.7c0.1-0.1,0.1-0.2,0-0.2l-1.3-0.8c-0.1-0.1-0.3-0.1-0.4,0
				l-1.3,0.7C68.2,301.5,68.2,301.6,68.3,301.7z"/>
			<path class="st4" d="M66.4,300.6l1.3,0.8c0.1,0.1,0.3,0.1,0.4,0l1.3-0.7c0.1-0.1,0.1-0.2,0-0.2l-1.3-0.8c-0.1-0.1-0.3-0.1-0.4,0
				l-1.3,0.7C66.4,300.4,66.3,300.5,66.4,300.6z"/>
			<path class="st4" d="M64.6,299.5l1.3,0.8c0.1,0.1,0.3,0.1,0.4,0l1.3-0.7c0.1-0.1,0.1-0.2,0-0.2l-1.3-0.8c-0.1-0.1-0.3-0.1-0.4,0
				l-1.3,0.7C64.5,299.3,64.5,299.5,64.6,299.5z"/>
			<path class="st4" d="M62.7,298.5l1.3,0.8c0.1,0.1,0.3,0.1,0.4,0l1.2-0.7c0.1-0.1,0.1-0.2,0-0.2l-1.3-0.8c-0.1-0.1-0.3-0.1-0.4,0
				l-1.2,0.7C62.7,298.3,62.6,298.4,62.7,298.5z"/>
			<path class="st4" d="M60.9,297.4l1.3,0.8c0.1,0.1,0.3,0.1,0.4,0l1.2-0.7c0.1-0.1,0.1-0.2,0-0.2l-1.3-0.8c-0.1-0.1-0.3-0.1-0.4,0
				l-1.2,0.7C60.8,297.2,60.8,297.3,60.9,297.4z"/>
			<path class="st4" d="M59.1,296.3l1.3,0.8c0.1,0.1,0.3,0.1,0.4,0l1.2-0.7c0.1-0.1,0.1-0.2,0-0.2l-1.3-0.8c-0.1-0.1-0.3-0.1-0.4,0
				l-1.2,0.7C59,296.1,58.9,296.2,59.1,296.3z"/>
			<path class="st4" d="M57.2,295.3l1.3,0.8c0.1,0.1,0.3,0.1,0.4,0l1.3-0.7c0.1-0.1,0.1-0.2,0-0.2l-1.3-0.8c-0.1-0.1-0.3-0.1-0.4,0
				l-1.3,0.7C57.1,295.1,57.1,295.2,57.2,295.3z"/>
			<path class="st4" d="M55.4,294.2l1.3,0.8c0.1,0.1,0.3,0.1,0.4,0l1.3-0.7c0.1-0.1,0.1-0.2,0-0.2l-1.3-0.8c-0.1-0.1-0.3-0.1-0.4,0
				l-1.3,0.7C55.3,294,55.2,294.1,55.4,294.2z"/>
			<path class="st4" d="M53.5,293.1l1.3,0.8c0.1,0.1,0.3,0.1,0.4,0l1.3-0.7c0.1-0.1,0.1-0.2,0-0.2l-1.3-0.8c-0.1-0.1-0.3-0.1-0.4,0
				l-1.2,0.7C53.4,293,53.4,293.1,53.5,293.1z"/>
			<path class="st4" d="M51.7,292.1l1.3,0.8c0.1,0.1,0.3,0.1,0.4,0l1.2-0.7c0.1-0.1,0.1-0.2,0-0.2l-1.3-0.8c-0.1-0.1-0.3-0.1-0.4,0
				l-1.2,0.7C51.6,291.9,51.5,292,51.7,292.1z"/>
			<path class="st4" d="M47.5,289.7l3.6,2.1c0.1,0.1,0.3,0.1,0.4,0l1.2-0.7c0.1-0.1,0.1-0.2,0-0.2l-3.6-2.1c-0.1-0.1-0.3-0.1-0.4,0
				l-1.3,0.7C47.4,289.5,47.4,289.6,47.5,289.7z"/>
			<path class="st4" d="M72,303.8l1.8,1c0.1,0.1,0.3,0.1,0.4,0l1.3-0.7c0.1-0.1,0.1-0.2,0-0.2l-1.8-1c-0.1-0.1-0.3-0.1-0.4,0
				l-1.2,0.7C71.9,303.6,71.9,303.7,72,303.8z"/>
		</g>
		<g id="_Группа_4">
			<g id="_Группа_5">
				<path id="_Контур_6" class="st9" d="M85.7,299.9L85.7,299.9L56,282.8v-23.3l0.2-0.5l0.2-0.1l0,0c0.6-0.4,1.4-0.4,2.1,0
					l27.1,15.6c0.6,0.4,1,1,1,1.8v21.9C86.5,299.3,86.3,299.6,85.7,299.9z"/>
				<path id="_Контур_7" class="st9" d="M83,277.3l-26.9-17.1v-0.8l0.2-0.5l0.2-0.1c0.6-0.4,1.4-0.4,2.1,0l27.1,15.6
					c0.3,0.2,0.6,0.5,0.8,0.8L83,277.3z"/>
				<path id="_Контур_8" class="st12" d="M56.7,259l28.5,16.4c0.3,0.2,0.5,0.5,0.5,0.9V300L56,282.9v-23.5
					c0-0.2,0.2-0.5,0.4-0.5S56.7,258.9,56.7,259z"/>
				<path id="_Контур_9" class="st10" d="M56.7,259l28.5,16.4c0.3,0.2,0.5,0.5,0.5,0.9V300L56,282.9v-23.5
					c0-0.2,0.2-0.5,0.4-0.5S56.7,258.9,56.7,259z"/>
				<polygon id="_Контур_10" class="st13" points="85.7,299.9 85.7,299.1 56.1,282 56.1,282.8 				"/>
			</g>
			<polygon id="_Контур_11" class="st14" points="57.2,260.4 57.2,281.4 84.8,297.3 84.8,276.3 			"/>
		</g>
		<g id="Men_2">
			<path id="_Контур_12" class="st15" d="M8,279.3c-0.2,2.2-2.9,11.7-2.3,15c0.6,3.2,9.5,8.7,9.5,8.7l1.2-5.5l-5-4.9l1.3-9.2
				L8,279.3z"/>
			<path id="_Контур_13" class="st16" d="M14.9,270c-1.8-0.8-4-0.2-5,1.5c-1.3,2.2-2.7,9.7-2.8,10.9c0,0,1.8,2.6,4.6,2.1
				L14.9,270z"/>
			<path class="st17" d="M25.2,375.9c2,0.5,4,0.3,5.8-0.7c1.4,0,9-3.2,10-0.5c0.9,2.4-2.4,4.6-4.1,5c-3.8,0.9-6.7,2.8-8.2,3.2
				c-1.1,0.2-2.6,0.4-3.5-0.5C24,381.3,24.1,377.3,25.2,375.9z"/>
			<path class="st5" d="M28.6,382.2c1.5-0.3,4.4-2.2,8.2-3.2c1.5-0.4,4-2,4.3-3.9c0.3,2.2-2.6,4.2-4.3,4.6c-3.8,0.9-6.7,2.8-8.2,3.2
				c-1.1,0.2-2.6,0.4-3.5-0.5c-0.2-0.3-0.4-0.6-0.5-0.9C25.7,382.3,27.2,382.6,28.6,382.2z"/>
			<path class="st17" d="M12.9,370.3c2,0.5,4,0.3,5.8-0.7c1.4,0,9-3.2,10-0.5c0.9,2.4-2.4,4.6-4.1,5c-3.8,0.9-6.7,2.8-8.2,3.2
				c-1.1,0.2-2.6,0.4-3.6-0.5C11.7,375.8,11.8,371.8,12.9,370.3z"/>
			<path class="st5" d="M16.3,376.7c1.5-0.3,4.4-2.2,8.2-3.2c1.5-0.4,4-2,4.3-3.9c0.3,2.2-2.6,4.2-4.3,4.6c-3.8,0.9-6.7,2.8-8.2,3.2
				c-1.2,0.2-2.6,0.4-3.6-0.5c-0.2-0.3-0.4-0.6-0.5-0.9C13.4,376.8,14.9,377.1,16.3,376.7z"/>
			<path id="_Контур_14" class="st5" d="M12.7,349.7c0.3-2.8,0.9-5.6,1.7-8.3c0,0-0.5-7.2-0.8-14c-0.3-7.7-3-14.5-0.9-20.7
				l23.8,5.3c0,0-1.4,30.8-1.8,34.5c-0.2,2.9-0.5,5.8-1.1,8.6c-1.1,6-2.9,20.2-2.9,20.2c-2.5,1.5-5.8,0.7-5.8,0.7s0.2-18,0.3-22.3
				c0.2-5.3,0.4-4.8,0.4-4.8L25,335.8l-0.5-6.5c0,0-0.7,4.8-1.1,9.1c-0.4,3.7-1.3,7.1-2.3,14c-0.9,6-2.3,18.1-2.3,18.1
				c-2.5,1.5-5.9,0.2-5.9,0.2S12,354.9,12.7,349.7z"/>
			<path id="_Контур_15" class="st15" d="M16.2,270.1c1.8,0.1,3.2,0.6,3.4,0c0.2-0.9,0.3-1.9,0.4-2.8
				c-0.2-0.5-0.4-1.1-0.4-1.1c-2.3-1.4-3-3.9-3.3-6.7c-0.5-4.9,2.1-9.2,7-9.7c4.6-0.5,8,2.8,8.9,7.2c0.5,2.2,1.5,6.3,0.1,10
				c-0.7,2-1.7,3.6-2.6,3.9c-0.9,0-1.8-0.1-2.8-0.2l0,0c0,0-0.2,1.4-0.4,2.2c-0.2,0.9-0.1,1.3,1.6,2.4s-2.6,3.3-5.5,3.1
				s-6.1-1.9-6.9-3.8C14.8,272.5,14.9,270.1,16.2,270.1z"/>
			<path id="_Контур_16" class="st10" d="M18.8,270.4c-0.5,1.3,0.8,2.8,4.2,3.9s3.7-0.3,3.7-0.3c2.3,1,4.5,2.2,6.6,3.4
				c2,1.4,3,5.5,3.2,12.5c0.3,8.1,0.3,20.1,0.1,22.1c0,0-3.8,3.8-8.7,3.4s-13.1-4.7-15.1-8.1c0.1-7.1,0.9-8.3-0.3-12.3
				c-2.6-9.3-4-13.2-2.8-19.4c1-5.1,2.5-5.8,4.5-5.7C15.8,270,17.3,270.2,18.8,270.4z"/>
			<path id="_Контур_17" class="st15" d="M44.2,296.6c-4,1-4.9-1.5-5.5-3.6c-1.3-5.1-2-9.7-2.9-12.5c-1.1-3.4-2.3-3.9-3.9-4.6
				c-1.9-0.8-3.6,0.9-3,5.2c0.8,5,2,9.9,3.7,14.7c0.5,1.6,1.6,4.4,3.3,5.8c2.1,1.7,5.2,1.6,9.9,0.4c2-0.5,4.2-1.7,8-3.5
				c1-0.5,1.8-0.8,3.8-1.7c2-0.9,3.7-2.2,5-3.9c1-1.5,1.2-2.2,0.9-2.5s-0.7-0.3-1.3,0.3c-0.8,1.1-1.8,2-2.9,2.7c0,0,1.3-1.3,2-2.2
				c0.6-0.8,1.1-1.6,1.5-2.5s-0.4-2-0.9-1.4s-0.8,1.3-1.8,2.5c-0.5,0.7-1.2,1.3-1.8,1.8c0.6-0.9,1.2-1.8,1.7-2.8
				c0.4-0.8,0.7-1.6,0.6-2.5c0-0.5-0.7-1-1.3-0.1c-0.6,1.2-1.3,2.3-2.2,3.3c-0.9,0.9-1.7,1.5-1.7,1.2s0.6-0.8,0.9-1.9s0-2.3-0.6-2.4
				s-0.5-0.1-1,0.9c-0.7,1.1-1.3,2.2-1.8,3.3c-0.3,1.1-0.9,2-1.6,2.8C50.2,294.5,48,295.6,44.2,296.6z"/>
			<path id="_Контур_18" class="st16" d="M30.4,275.1c2.7-0.4,4.6,0.8,5.8,4.9s2,7.4,2,7.4c-1.1,1.5-2.7,2.6-4.5,3
				c-3.2,0.8-4.4-0.8-4.4-0.8s-0.9-4.3-1.4-7.1C27.3,279.6,27.1,275.6,30.4,275.1z"/>
			<path class="st18" d="M32.1,256.3c0,0,4.2-6.4-4.9-7.8c-6.6-0.9-10.9,3.3-11.4,7.9c-0.5,4.4,2.2,9,4.2,10.8
				c0.9,0.3,3,0.5,5.7-0.7c0.1-1.2,0.2-2.4,0.1-3.6C25.8,263,22.6,256.2,32.1,256.3z"/>
		</g>
	</g>
</g>
</svg>
